<?xml version="1.0" encoding="utf-8"?>
<!-- Generator: Adobe Illustrator 25.0.1, SVG Export Plug-In . SVG Version: 6.00 Build 0)  -->
<svg version="1.1" id="Layer_1" xmlns="http://www.w3.org/2000/svg" xmlns:xlink="http://www.w3.org/1999/xlink" x="0px" y="0px"
	 viewBox="0 0 347.9 98.4" style="enable-background:new 0 0 347.9 98.4;" xml:space="preserve">
<style type="text/css">
	#akceaLogo .st0{fill:#630932;}
	#akceaLogo .st1{fill:#DB1B53;}
	#akceaLogo .st2{fill:url(#SVGID_1_);}
	#akceaLogo .st3{fill:url(#SVGID_2_);}
	#akceaLogo .st4{fill:url(#SVGID_3_);}
	#akceaLogo .st5{fill:url(#SVGID_4_);}
	#akceaLogo .st6{fill:url(#SVGID_5_);}
	#akceaLogo .st7{fill:none;stroke:#630932;stroke-miterlimit:10;}
	#akceaLogo .st8{fill:#F47821;}
</style>
<g id="akceaLogo">
	<g>
		<g>
			<path class="st0" d="M251.1,90.3c0.2-0.1,0.4-0.2,0.7-0.3c0.4-0.2,0.8-0.5,1.2-0.8c0.3-0.3,0.6-0.7,0.8-1.2
				c0.2-0.4,0.3-1,0.3-1.5c0-0.6-0.1-1.2-0.4-1.7c-0.3-0.5-0.6-0.9-1.1-1.2c-0.4-0.3-1-0.5-1.6-0.7c-0.6-0.1-1.2-0.2-1.8-0.2h-3.4
				v13.1h2.2v-5.1h0.4c0.1,0,0.2,0,0.4,0h0.1l4.1,5.1h2.8L251.1,90.3z M248.4,88.8h-0.5v-4.1h1.2c0.4,0,0.8,0,1.1,0.1
				c0.3,0.1,0.6,0.2,0.9,0.3c0.2,0.2,0.4,0.3,0.6,0.6c0.1,0.2,0.2,0.5,0.2,0.8c0,0.4-0.1,0.7-0.2,0.9c-0.2,0.3-0.4,0.5-0.7,0.7
				c-0.3,0.2-0.7,0.3-1.1,0.4C249.4,88.7,248.9,88.8,248.4,88.8z"/>
			<polygon class="st0" points="237,93.9 242.3,93.9 242.3,95.9 234.8,95.9 234.8,82.7 242.2,82.7 242.2,84.7 237,84.7 237,88.2 
				242,88.2 242,90.1 237,90.1 			"/>
			<polygon class="st0" points="228.6,82.7 230.8,82.7 230.8,95.9 228.6,95.9 228.6,90.2 222.6,90.2 222.6,95.9 220.4,95.9 
				220.4,82.7 222.6,82.7 222.6,88.2 228.6,88.2 			"/>
			<polygon class="st0" points="208,82.7 217.5,82.7 217.5,84.7 213.8,84.7 213.8,95.9 211.6,95.9 211.6,84.7 208,84.7 			"/>
		</g>
		<g>
			<path class="st0" d="M262,82.7l-5.2,13.1h2.3l1.2-3.1h5.2l1.2,3.1h2.3l-5.2-13.1H262z M261,90.8l1.9-4.9l1.9,4.9H261z"/>
			<path class="st0" d="M279.5,84.9c-0.3-0.5-0.6-0.9-1.1-1.2c-0.4-0.3-1-0.6-1.6-0.7c-0.6-0.2-1.2-0.2-1.9-0.2h-3.2v13.1h2.2v-5
				h0.6c0.8,0,1.4-0.1,2.1-0.3c0.6-0.2,1.2-0.5,1.7-0.8c0.5-0.4,0.9-0.8,1.2-1.3c0.3-0.5,0.4-1.1,0.4-1.8
				C279.9,86,279.8,85.4,279.5,84.9z M274.6,88.9H274v-4.2h1c0.4,0,0.8,0,1.1,0.1c0.3,0.1,0.6,0.2,0.9,0.4c0.2,0.2,0.4,0.3,0.6,0.6
				c0.1,0.2,0.2,0.5,0.2,0.9c0,0.4-0.1,0.7-0.2,0.9c-0.1,0.3-0.3,0.5-0.6,0.7c-0.3,0.2-0.6,0.3-1,0.4
				C275.5,88.8,275.1,88.9,274.6,88.9z"/>
		</g>
		<g>
			<polygon class="st0" points="290.2,93.9 290.2,95.9 282.7,95.9 282.7,82.7 290.1,82.7 290.1,84.7 284.9,84.7 284.9,88.2 
				289.9,88.2 289.9,90.1 284.9,90.1 284.9,93.9 			"/>
		</g>
		<g>
			<polygon class="st0" points="316.2,82.7 316.2,84.7 312.6,84.7 312.6,95.9 310.4,95.9 310.4,84.7 306.7,84.7 306.7,82.7 			"/>
			<path class="st0" d="M301.7,82.7h2.2v8.4c0,0.7-0.1,1.3-0.3,1.9c-0.2,0.6-0.5,1.1-1,1.6c-0.4,0.4-1,0.8-1.6,1.1
				c-0.6,0.3-1.4,0.4-2.2,0.4c-0.8,0-1.6-0.1-2.2-0.4c-0.6-0.3-1.2-0.6-1.6-1.1c-0.4-0.4-0.8-1-1-1.6c-0.2-0.6-0.3-1.2-0.3-1.9v-8.4
				h2.2v8.5c0,0.9,0.2,1.6,0.7,2.1c0.5,0.5,1.2,0.8,2.2,0.8c1,0,1.7-0.2,2.2-0.8c0.5-0.5,0.7-1.2,0.7-2.1V82.7z"/>
		</g>
		<g>
			<path class="st0" d="M346,92.3c0,0.6-0.1,1.1-0.4,1.6c-0.2,0.5-0.6,0.9-1,1.2c-0.4,0.3-0.9,0.6-1.4,0.8c-0.5,0.2-1.1,0.3-1.8,0.3
				c-0.6,0-1.2-0.1-1.9-0.2c-0.6-0.1-1.2-0.3-1.7-0.6l-0.4-0.2l0.5-1.9l0.5,0.2c0.5,0.2,0.9,0.4,1.4,0.5c0.5,0.1,1,0.2,1.5,0.2
				c0.8,0,1.4-0.2,1.8-0.5c0.4-0.3,0.6-0.7,0.6-1.3c0-0.3,0-0.5-0.2-0.8c-0.1-0.2-0.3-0.4-0.5-0.6c-0.2-0.2-0.5-0.4-0.8-0.5
				c-0.3-0.2-0.7-0.3-1-0.5c-0.4-0.2-0.8-0.4-1.2-0.6c-0.4-0.2-0.8-0.5-1.1-0.8c-0.3-0.3-0.6-0.6-0.8-1c-0.2-0.4-0.3-0.9-0.3-1.4
				c0-0.6,0.1-1.1,0.3-1.5c0.2-0.4,0.5-0.8,0.9-1.1c0.4-0.3,0.8-0.5,1.3-0.7c1-0.3,2.2-0.3,3.3,0c0.6,0.1,1.1,0.3,1.5,0.5l0.3,0.2
				l-0.5,2l-0.5-0.3c-0.4-0.2-0.8-0.3-1.3-0.4c-1.1-0.3-2.2-0.2-2.8,0.2c-0.3,0.2-0.5,0.6-0.5,1.1c0,0.2,0,0.5,0.1,0.6
				c0.1,0.2,0.2,0.3,0.3,0.4c0.2,0.1,0.4,0.3,0.7,0.4c0.3,0.2,0.6,0.3,1,0.5c0.4,0.2,0.8,0.4,1.3,0.7c0.5,0.2,0.9,0.5,1.3,0.8
				c0.4,0.3,0.7,0.7,1,1.2C345.9,91.1,346,91.6,346,92.3z"/>
			<path class="st0" d="M328.1,85.7c-0.8,0.8-1.2,2-1.2,3.6c0,1.5,0.4,2.7,1.2,3.6c0.8,0.8,1.9,1.2,3.4,1.2c0.4,0,0.9,0,1.3-0.1
				c0.4-0.1,0.9-0.2,1.3-0.3l0.5-0.2l0.4,1.9l-0.4,0.2c-0.4,0.2-1,0.3-1.5,0.4c-0.6,0.1-1.2,0.2-1.7,0.2c-1,0-2-0.2-2.8-0.5
				c-0.8-0.3-1.5-0.8-2.1-1.4c-0.6-0.6-1-1.3-1.3-2.2c-0.3-0.8-0.4-1.7-0.4-2.7s0.2-1.8,0.4-2.7c0.3-0.8,0.7-1.6,1.3-2.2
				c0.6-0.6,1.3-1.1,2.1-1.4c1.3-0.5,2.9-0.6,4.6-0.4c0.6,0.1,1.1,0.2,1.5,0.4l0.4,0.2l-0.4,1.9l-0.5-0.2c-0.4-0.1-0.8-0.3-1.3-0.3
				c-0.4-0.1-0.9-0.1-1.3-0.1C330,84.5,328.9,84.9,328.1,85.7z"/>
			<rect x="319.2" y="82.7" class="st0" width="2.2" height="13.1"/>
		</g>
	</g>
	<g>
		<g>
			<path class="st1" d="M342.6,1.2c-2.9,0-4.9,2.1-4.9,5.1c0,3,2,5.1,4.9,5.1c2.9,0,4.9-2.1,4.9-5.1C347.5,3.3,345.5,1.2,342.6,1.2z
				 M346.6,6.3c0,2.5-1.6,4.2-4,4.2c-2.4,0-4-1.7-4-4.2c0-2.5,1.6-4.2,4-4.2C345,2,346.6,3.7,346.6,6.3z"/>
			<path class="st1" d="M344.6,4.9c0-1.1-0.8-1.7-2.1-1.7h-1.8v5.7h1.2V6.7h0.3L344,9l1.2-0.3l-1.6-2.2
				C344.3,6.2,344.6,5.7,344.6,4.9z M343.4,5c0,0.2,0,0.7-0.8,0.7H342V4.4h0.6C343.1,4.4,343.4,4.6,343.4,5z"/>
		</g>
		<g>
			<g>
				<g>
					<linearGradient id="SVGID_1_" gradientUnits="userSpaceOnUse" x1="257.9779" y1="72.2448" x2="257.9779" y2="9.263960e-03">
						<stop  offset="0" style="stop-color:#630932"/>
						<stop  offset="0.2595" style="stop-color:#8A0F3D"/>
						<stop  offset="0.5895" style="stop-color:#B61649"/>
						<stop  offset="0.8465" style="stop-color:#D11A51"/>
						<stop  offset="0.9969" style="stop-color:#DB1B53"/>
					</linearGradient>
					<polygon class="st2" points="249.7,41 247,60.2 275.1,60.2 273.5,71.2 232.6,71.2 242.8,1.3 283.3,1.3 281.7,12.3 253.9,12.3 
						251.3,30 278,30 276.4,41 					"/>
					<linearGradient id="SVGID_2_" gradientUnits="userSpaceOnUse" x1="203.2457" y1="72.2448" x2="203.2457" y2="9.263960e-03">
						<stop  offset="0" style="stop-color:#630932"/>
						<stop  offset="0.2595" style="stop-color:#8A0F3D"/>
						<stop  offset="0.5895" style="stop-color:#B61649"/>
						<stop  offset="0.8465" style="stop-color:#D11A51"/>
						<stop  offset="0.9969" style="stop-color:#DB1B53"/>
					</linearGradient>
					<path class="st3" d="M233.8,3.9l-3.7,10.4l-1.8-0.7c-2.1-0.8-4.4-1.4-6.8-1.9c-2.4-0.5-4.8-0.7-7.2-0.7
						c-7.8,0-14.3,2.2-19.2,6.5c-4.9,4.3-8,10.6-9.2,18.7c-1.2,8.1,0.1,14.4,3.7,18.6s9.4,6.4,17.2,6.4c2.4,0,4.9-0.2,7.4-0.7
						c2.6-0.5,5.1-1.1,7.3-1.9l2.1-0.7l0.7,10.5l-1.3,0.5c-2.5,1-5.5,1.8-8.9,2.4c-3.4,0.6-6.7,0.9-9.8,0.9
						c-5.6,0-10.7-0.9-14.9-2.7c-4.3-1.8-7.7-4.4-10.4-7.6c-2.6-3.3-4.5-7.1-5.5-11.5c-1-4.4-1.1-9.2-0.4-14.4
						c0.7-5.2,2.3-10,4.5-14.4c2.3-4.4,5.2-8.2,8.7-11.4c3.5-3.2,7.7-5.8,12.5-7.6c7.4-2.8,16.1-3.5,25.2-1.8
						c3.3,0.6,6.1,1.4,8.3,2.4L233.8,3.9z"/>
					<linearGradient id="SVGID_3_" gradientUnits="userSpaceOnUse" x1="310.9422" y1="72.2448" x2="310.9422" y2="9.263960e-03">
						<stop  offset="0" style="stop-color:#630932"/>
						<stop  offset="0.2595" style="stop-color:#8A0F3D"/>
						<stop  offset="0.5895" style="stop-color:#B61649"/>
						<stop  offset="0.8465" style="stop-color:#D11A51"/>
						<stop  offset="0.9969" style="stop-color:#DB1B53"/>
					</linearGradient>
					<path class="st4" d="M327.1,2.5l-0.3-1.2h-11.4l-38,69.9h13.3l8.3-16h28.5l3.8,16h13.2L327.1,2.5z M325.1,44.3h-20.4l14.2-27.7
						L325.1,44.3z"/>
					<linearGradient id="SVGID_4_" gradientUnits="userSpaceOnUse" x1="60.4259" y1="72.2448" x2="60.4259" y2="9.263960e-03">
						<stop  offset="0" style="stop-color:#630932"/>
						<stop  offset="0.2595" style="stop-color:#8A0F3D"/>
						<stop  offset="0.5895" style="stop-color:#B61649"/>
						<stop  offset="0.8465" style="stop-color:#D11A51"/>
						<stop  offset="0.9969" style="stop-color:#DB1B53"/>
					</linearGradient>
					<path class="st5" d="M119.6,1.3l-11.5,69.9H96.2L99,55H74.3l3.2-2.2c4.6-3.1,9-6.5,13.1-10.3l0.4-0.3h10.2l3.4-19.6
						c-35.2,47-84.5,50.7-98.9,50.7c-2.1,0-3.3-0.1-3.5-0.1l-1.1-0.1l0-11.5l1.2,0c1.3,0,2.5,0.1,3.7,0.1c33.7,0,58.6-16,73.5-29.5
						c16.6-14.9,24.8-29.8,24.9-30l0.3-0.6L119.6,1.3z"/>
					<linearGradient id="SVGID_5_" gradientUnits="userSpaceOnUse" x1="148.9052" y1="72.2448" x2="148.9052" y2="9.263960e-03">
						<stop  offset="0" style="stop-color:#630932"/>
						<stop  offset="0.2595" style="stop-color:#8A0F3D"/>
						<stop  offset="0.5895" style="stop-color:#B61649"/>
						<stop  offset="0.8465" style="stop-color:#D11A51"/>
						<stop  offset="0.9969" style="stop-color:#DB1B53"/>
					</linearGradient>
					<polygon class="st6" points="145.6,36 172.6,71.2 156.3,71.2 134.1,41.2 129.7,71.2 117,71.2 127.1,1.3 139.9,1.3 135.6,30.4 
						164.9,1.3 180.8,1.3 					"/>
				</g>
			</g>
		</g>
	</g>
	<line class="st7" x1="193.9" y1="80.3" x2="193.9" y2="98.3"/>
	<g>
		<path class="st8" d="M5.5,82.8H8l5.2,12.8h-2.8l-1.1-2.8H4.2l-1.1,2.8H0.3L5.5,82.8z M8.3,90.3l-1.6-4.1l-1.6,4.1H8.3z"/>
		<path class="st8" d="M15,82.9h2.4l5.6,7.8v-7.8h2.6v12.7h-2.3l-5.8-8.1v8.1H15V82.9z"/>
		<path class="st8" d="M33.9,82.9h2.6v12.7h-2.6V82.9z"/>
		<path class="st8" d="M39,89.3L39,89.3c0-3.6,2.7-6.6,6.4-6.6c3.7,0,6.4,2.9,6.4,6.5v0c0,3.6-2.7,6.6-6.4,6.6
			C41.7,95.9,39,92.9,39,89.3z M49,89.3L49,89.3c0-2.2-1.5-4-3.6-4c-2.1,0-3.6,1.8-3.6,4v0c0,2.2,1.5,4,3.6,4
			C47.5,93.3,49,91.5,49,89.3z"/>
		<path class="st8" d="M54.1,82.9h2.4l5.6,7.8v-7.8h2.6v12.7h-2.3l-5.8-8.1v8.1h-2.6V82.9z"/>
		<path class="st8" d="M67.9,82.9h2.6v12.7h-2.6V82.9z"/>
		<path class="st8" d="M72.7,93.8l1.6-2c1.1,0.9,2.2,1.5,3.6,1.5c1.1,0,1.7-0.5,1.7-1.2v0c0-0.7-0.4-1.1-2.4-1.6
			c-2.4-0.7-4-1.4-4-3.9v0c0-2.3,1.8-3.8,4.2-3.8c1.8,0,3.3,0.6,4.5,1.6l-1.4,2.1c-1.1-0.8-2.1-1.3-3.1-1.3s-1.5,0.5-1.5,1.1v0
			c0,0.8,0.5,1.1,2.6,1.7c2.4,0.7,3.8,1.6,3.8,3.8v0c0,2.5-1.8,3.9-4.4,3.9C76,95.8,74.1,95.1,72.7,93.8z"/>
		<path class="st8" d="M89.2,89.3L89.2,89.3c0-3.6,2.6-6.6,6.3-6.6c2.3,0,3.6,0.8,4.7,2l-1.7,2c-0.9-0.9-1.9-1.4-3.1-1.4
			c-2,0-3.5,1.8-3.5,4v0c0,2.2,1.4,4,3.5,4c1.4,0,2.2-0.6,3.2-1.5l1.7,1.8c-1.2,1.4-2.6,2.3-4.9,2.3C91.8,95.9,89.2,93,89.2,89.3z"
			/>
		<path class="st8" d="M101.5,89.3L101.5,89.3c0-3.6,2.7-6.6,6.4-6.6c3.7,0,6.4,2.9,6.4,6.5v0c0,3.6-2.7,6.6-6.4,6.6
			C104.2,95.9,101.5,92.9,101.5,89.3z M111.6,89.3L111.6,89.3c0-2.2-1.5-4-3.6-4c-2.1,0-3.6,1.8-3.6,4v0c0,2.2,1.5,4,3.6,4
			C110.1,93.3,111.6,91.5,111.6,89.3z"/>
		<path class="st8" d="M116.7,82.9h2.9l3.2,5.4l3.2-5.4h2.9v12.7h-2.6v-8.3l-3.4,5.4h-0.1l-3.4-5.4v8.2h-2.6V82.9z"/>
		<path class="st8" d="M131.6,82.9h4.9c2.9,0,4.6,1.8,4.6,4.4v0c0,2.9-2.2,4.5-4.9,4.5h-2v3.8h-2.6V82.9z M136.4,89.3
			c1.3,0,2.1-0.8,2.1-1.9v0c0-1.3-0.8-1.9-2.2-1.9h-2v3.9H136.4z"/>
		<path class="st8" d="M146.1,82.8h2.4l5.2,12.8h-2.8l-1.1-2.8h-5.1l-1.1,2.8h-2.7L146.1,82.8z M148.8,90.3l-1.6-4.1l-1.6,4.1H148.8
			z"/>
		<path class="st8" d="M155.5,82.9h2.4l5.6,7.8v-7.8h2.6v12.7H164l-5.8-8.1v8.1h-2.6V82.9z"/>
		<path class="st8" d="M172.5,90.6l-4.6-7.7h3.1l2.9,5.1l2.9-5.1h3l-4.6,7.6v5.1h-2.6V90.6z"/>
	</g>
</g>
</svg>
